# Blender v2.79 (sub 0) OBJ File: ''
# www.blender.org
o Cube
v 1.000000 -1.000000 -1.000000
v 1.000000 -1.000000 1.000000
v -1.000000 -1.000000 1.000000
v -1.000000 -1.000000 -1.000000
v 1.000000 1.000000 -0.999999
v 0.999999 1.000000 1.000001
v -1.000000 1.000000 1.000000
v -1.000000 1.000000 -1.000000
vt 1.000670 0.500200
vt 0.500389 0.997381
vt 1.000670 0.997381
vt 0.498931 0.000200
vt -0.001350 0.497381
vt 0.498931 0.497381
vt 0.000200 0.498838
vt 0.498931 0.996019
vt 0.498931 0.498838
vt 0.000200 0.501069
vt 0.498931 0.999800
vt 0.498931 0.501069
vt -0.000481 0.498931
vt 0.498250 0.997099
vt -0.000481 0.997099
vt 0.000881 0.996796
vt 0.496511 0.499119
vt 0.496511 0.996796
vt 0.500389 0.500200
vt 0.000200 0.000200
vt 0.000200 0.996019
vt 0.000200 0.999800
vt 0.498250 0.498931
vt 0.000881 0.499119
vn 0.0000 1.0000 0.0000
vn 0.0000 -1.0000 0.0000
vn -1.0000 0.0000 0.0000
vn 0.0000 0.0000 -1.0000
vn 1.0000 0.0000 0.0000
vn -0.0000 -0.0000 1.0000
s off
f 4/1/1 2/2/1 1/3/1
f 6/4/2 8/5/2 5/6/2
f 2/7/3 5/8/3 1/9/3
f 3/10/4 6/11/4 2/12/4
f 3/13/5 8/14/5 7/15/5
f 8/16/6 1/17/6 5/18/6
f 4/1/1 3/19/1 2/2/1
f 6/4/2 7/20/2 8/5/2
f 2/7/3 6/21/3 5/8/3
f 3/10/4 7/22/4 6/11/4
f 3/13/5 4/23/5 8/14/5
f 8/16/6 4/24/6 1/17/6
